<mxfile host="app.diagrams.net" modified="2023-05-11T11:37:12.470Z" agent="Mozilla/5.0 (Windows NT 10.0; Win64; x64) AppleWebKit/537.36 (KHTML, like Gecko) Chrome/113.0.0.0 Safari/537.36" version="21.2.9" etag="3F5yJKQvlQG9xkF3BcCI" type="github">
  <diagram name="페이지-1" id="r2zfP6sE2SWbpjnyPcPe">
    <mxGraphModel>
      <root>
        <mxCell id="0" />
        <mxCell id="1" parent="0" />
      </root>
    </mxGraphModel>
  </diagram>
</mxfile>
